{
    "accessors": [
        {
            "bufferView": 0,
            "byteOffset": 0,
            "componentType": 5123,
            "count": 49698,
            "type": "SCALAR",
            "max": [
                40924
            ],
            "min": [
                0
            ]
        },
        {
            "bufferView": 1,
            "byteOffset": 0,
            "componentType": 5126,
            "count": 40925,
            "type": "VEC3",
            "max": [
                2.8614566326141357,
                2.579148292541504,
                1.2704423666000366
            ],
            "min": [
                -2.709435224533081,
                -2.5928027629852295,
                -1.364421010017395
            ],
            "name": "POSITION"
        },
        {
            "bufferView": 1,
            "byteOffset": 12,
            "componentType": 5126,
            "count": 40925,
            "type": "VEC3",
            "max": [
                0.9998484253883362,
                0.9998413920402527,
                0.9999216794967651
            ],
            "min": [
                -1.0000003576278687,
                -0.9999984502792358,
                -0.9995043873786926
            ],
            "name": "NORMAL"
        },
        {
            "bufferView": 1,
            "byteOffset": 24,
            "componentType": 5126,
            "count": 40925,
            "type": "VEC2",
            "max": [
                1,
                1
            ],
            "min": [
                0,
                0
            ],
            "name": "TEXCOORD_0"
        }
    ],
    "asset": {
        "generator": "Aspose.3D 22.1",
        "version": "2.0"
    },
    "buffers": [
        {
            "uri": "data:application/octet-stream;base64,",
            "byteLength": 1689740
        }
    ],
    "bufferViews": [
        {
            "buffer": 0,
            "byteOffset": 0,
            "byteLength": 99396,
            "target": 34963
        },
        {
            "buffer": 0,
            "byteOffset": 99400,
            "byteLength": 1590336,
            "byteStride": 32,
            "target": 34962
        }
    ],
    "materials": [
        {
            "name": "Material.001",
            "pbrMetallicRoughness": {
                "baseColorFactor": [
                    0.800000011920929,
                    0.800000011920929,
                    0.800000011920929,
                    1
                ],
                "metallicFactor": 0,
                "roughnessFactor": 0.5
            },
            "emissiveFactor": [
                0,
                0,
                0
            ],
            "alphaMode": "OPAQUE",
            "doubleSided": true
        }
    ],
    "meshes": [
        {
            "primitives": [
                {
                    "attributes": {
                        "POSITION": 1,
                        "NORMAL": 2,
                        "TEXCOORD_0": 3
                    },
                    "indices": 0,
                    "material": 0,
                    "mode": 4
                }
            ]
        }
    ],
    "nodes": [
        {
            "matrix": [
                3.707381063257816E-08,
                -0.8298559622558431,
                -1.3832028509217927E-09,
                0,
                0.8275892019873857,
                3.658909671599895E-08,
                0.061294623299711436,
                0,
                -0.06129462329971033,
                -1.1723766773141596E-08,
                0.8275890990111752,
                0,
                0,
                0,
                0,
                1
            ],
            "mesh": 0,
            "name": ".001"
        }
    ],
    "scene": 0,
    "scenes": [
        {
            "nodes": [
                0
            ]
        }
    ]
}